<svg version="1.1" xmlns="http://www.w3.org/2000/svg" xmlns:xlink="http://www.w3.org/1999/xlink" width="2277" height="1299"><defs/><g><g transform="translate(-614,-206) scale(1,1)"><rect fill="#ffffff" stroke="none" x="1128" y="1120" width="999" height="375"/></g><g transform="translate(-614,-206) scale(1,1)"><path fill="none" stroke="#000000" d="M 1128 1120 L 2127 1120 L 2127 1495 L 1128 1495 L 1128 1120 Z Z" stroke-miterlimit="10"/></g><g transform="translate(-614,-206) scale(1,1)"><rect fill="#ffffff" stroke="none" x="1104" y="640" width="471" height="271"/></g><g transform="translate(-614,-206) scale(1,1)"><path fill="none" stroke="#000000" d="M 1104 640 L 1575 640 L 1575 911 L 1104 911 L 1104 640 Z Z" stroke-miterlimit="10"/></g><g transform="translate(-614,-206) scale(1,1)"><rect fill="#ffffff" stroke="none" x="1312" y="368" width="1520" height="224"/></g><g transform="translate(-614,-206) scale(1,1)"><path fill="none" stroke="#000000" d="M 1312 368 L 2832 368 L 2832 592 L 1312 592 L 1312 368 Z Z" stroke-miterlimit="10"/></g><g transform="translate(-614,-206) scale(1,1)"><rect fill="#C0C0C0" stroke="none" x="1479" y="967" width="95.72802734375" height="47" opacity="0.2"/></g><g transform="translate(-614,-206) scale(1,1)"><rect fill="#ffffff" stroke="none" x="1472" y="960" width="95.72802734375" height="47"/></g><g transform="translate(-614,-206) scale(1,1)"><path fill="none" stroke="#000000" d="M 1472 960 L 1567.72802734375 960 L 1567.72802734375 1007 L 1472 1007 L 1472 960 Z Z" stroke-miterlimit="10"/></g><g transform="translate(-614,-206) scale(1,1)"><path fill="none" stroke="#000000" d="M 1472 998 L 1567.72802734375 998" stroke-miterlimit="10"/></g><g transform="translate(-614,-206) scale(1,1)"><g><path fill="none" stroke="none"/><text fill="#000000" stroke="none" font-family="Arial" font-size="13px" font-style="normal" font-weight="normal" text-decoration="none" x="1476.5" y="977.5">«enumeration»</text></g></g><g transform="translate(-614,-206) scale(1,1)"><g><path fill="none" stroke="none"/><text fill="#000000" stroke="none" font-family="Arial" font-size="13px" font-style="normal" font-weight="bold" text-decoration="none" x="1491.324951171875" y="992.5">CardType</text></g></g><g transform="translate(-614,-206) scale(1,1)"><rect fill="#C0C0C0" stroke="none" x="1479" y="1031" width="95.72802734375" height="47" opacity="0.2"/></g><g transform="translate(-614,-206) scale(1,1)"><rect fill="#ffffff" stroke="none" x="1472" y="1024" width="95.72802734375" height="47"/></g><g transform="translate(-614,-206) scale(1,1)"><path fill="none" stroke="#000000" d="M 1472 1024 L 1567.72802734375 1024 L 1567.72802734375 1071 L 1472 1071 L 1472 1024 Z Z" stroke-miterlimit="10"/></g><g transform="translate(-614,-206) scale(1,1)"><path fill="none" stroke="#000000" d="M 1472 1062 L 1567.72802734375 1062" stroke-miterlimit="10"/></g><g transform="translate(-614,-206) scale(1,1)"><g><path fill="none" stroke="none"/><text fill="#000000" stroke="none" font-family="Arial" font-size="13px" font-style="normal" font-weight="normal" text-decoration="none" x="1476.5" y="1041.5">«enumeration»</text></g></g><g transform="translate(-614,-206) scale(1,1)"><g><path fill="none" stroke="none"/><text fill="#000000" stroke="none" font-family="Arial" font-size="13px" font-style="normal" font-weight="bold" text-decoration="none" x="1494.574951171875" y="1056.5">CardSuit</text></g></g><g transform="translate(-614,-206) scale(1,1)"><rect fill="#C0C0C0" stroke="none" x="1247" y="935" width="50.919921875" height="44" opacity="0.2"/></g><g transform="translate(-614,-206) scale(1,1)"><rect fill="#ffffff" stroke="none" x="1240" y="928" width="50.919921875" height="44"/></g><g transform="translate(-614,-206) scale(1,1)"><path fill="none" stroke="#000000" d="M 1240 928 L 1290.919921875 928 L 1290.919921875 972 L 1240 972 L 1240 928 Z Z" stroke-miterlimit="10"/></g><g transform="translate(-614,-206) scale(1,1)"><path fill="none" stroke="#000000" d="M 1240 953 L 1290.919921875 953" stroke-miterlimit="10"/></g><g transform="translate(-614,-206) scale(1,1)"><path fill="none" stroke="#000000" d="M 1240 963 L 1290.919921875 963" stroke-miterlimit="10"/></g><g transform="translate(-614,-206) scale(1,1)"><g><path fill="none" stroke="none"/><text fill="#000000" stroke="none" font-family="Arial" font-size="13px" font-style="normal" font-weight="bold" text-decoration="none" x="1251.371337890625" y="947.5">Card</text></g></g><g transform="translate(-614,-206) scale(1,1)"><rect fill="#C0C0C0" stroke="none" x="1247" y="1031" width="50.919921875" height="44" opacity="0.2"/></g><g transform="translate(-614,-206) scale(1,1)"><rect fill="#ffffff" stroke="none" x="1240" y="1024" width="50.919921875" height="44"/></g><g transform="translate(-614,-206) scale(1,1)"><path fill="none" stroke="#000000" d="M 1240 1024 L 1290.919921875 1024 L 1290.919921875 1068 L 1240 1068 L 1240 1024 Z Z" stroke-miterlimit="10"/></g><g transform="translate(-614,-206) scale(1,1)"><path fill="none" stroke="#000000" d="M 1240 1049 L 1290.919921875 1049" stroke-miterlimit="10"/></g><g transform="translate(-614,-206) scale(1,1)"><path fill="none" stroke="#000000" d="M 1240 1059 L 1290.919921875 1059" stroke-miterlimit="10"/></g><g transform="translate(-614,-206) scale(1,1)"><g><path fill="none" stroke="none"/><text fill="#000000" stroke="none" font-family="Arial" font-size="13px" font-style="normal" font-weight="bold" text-decoration="none" x="1250.65087890625" y="1043.5">Deck</text></g></g><g transform="translate(-614,-206) scale(1,1)"><path fill="#C0C0C0" stroke="none" d="M 1134.7099609375 1042.5 C 1134.7099609375 1036.1487248 1139.8586857375 1031 1146.2099609375 1031 C 1152.5612361375 1031 1157.7099609375 1036.1487248 1157.7099609375 1042.5 C 1157.7099609375 1048.8512752 1152.5612361375 1054 1146.2099609375 1054 C 1139.8586857375 1054 1134.7099609375 1048.8512752 1134.7099609375 1042.5 Z" opacity="0.2"/></g><g transform="translate(-614,-206) scale(1,1)"><path fill="#ffffff" stroke="none" d="M 1127.7099609375 1035.5 C 1127.7099609375 1029.1487248 1132.8586857375 1024 1139.2099609375 1024 C 1145.5612361375 1024 1150.7099609375 1029.1487248 1150.7099609375 1035.5 C 1150.7099609375 1041.8512752 1145.5612361375 1047 1139.2099609375 1047 C 1132.8586857375 1047 1127.7099609375 1041.8512752 1127.7099609375 1035.5 Z"/></g><g transform="translate(-614,-206) scale(1,1)"><path fill="none" stroke="#000000" d="M 1127.7099609375 1035.5 C 1127.7099609375 1029.1487248 1132.8586857375 1024 1139.2099609375 1024 C 1145.5612361375 1024 1150.7099609375 1029.1487248 1150.7099609375 1035.5 C 1150.7099609375 1041.8512752 1145.5612361375 1047 1139.2099609375 1047 C 1132.8586857375 1047 1127.7099609375 1041.8512752 1127.7099609375 1035.5 Z" stroke-miterlimit="10"/></g><g transform="translate(-614,-206) scale(1,1)"><g><path fill="none" stroke="none"/><text fill="#000000" stroke="none" font-family="Arial" font-size="13px" font-style="normal" font-weight="bold" text-decoration="none" x="1122.594970703125" y="1066.5">IDeck</text></g></g><g transform="translate(-614,-206) scale(1,1)"><path fill="none" stroke="#000000" d="M 1175 1047 L 1239 1046" stroke-miterlimit="10"/></g><g transform="translate(-614,-206) scale(1,1)"><rect fill="#C0C0C0" stroke="none" x="631" y="503" width="57.419921875" height="44" opacity="0.2"/></g><g transform="translate(-614,-206) scale(1,1)"><rect fill="#ffffff" stroke="none" x="624" y="496" width="57.419921875" height="44"/></g><g transform="translate(-614,-206) scale(1,1)"><path fill="none" stroke="#000000" d="M 624 496 L 681.419921875 496 L 681.419921875 540 L 624 540 L 624 496 Z Z" stroke-miterlimit="10"/></g><g transform="translate(-614,-206) scale(1,1)"><path fill="none" stroke="#000000" d="M 624 521 L 681.419921875 521" stroke-miterlimit="10"/></g><g transform="translate(-614,-206) scale(1,1)"><path fill="none" stroke="#000000" d="M 624 531 L 681.419921875 531" stroke-miterlimit="10"/></g><g transform="translate(-614,-206) scale(1,1)"><g><path fill="none" stroke="none"/><text fill="#000000" stroke="none" font-family="Arial" font-size="13px" font-style="normal" font-weight="bold" text-decoration="none" x="629.950439453125" y="515.5">APlayer</text></g></g><g transform="translate(-614,-206) scale(1,1)"><path fill="none" stroke="#000000" d="M 655.9220955664599 327.9195440392557 A 11.5 11.5 0 0 1 662.0779044335401 350.0804559607443" stroke-miterlimit="10"/></g><g transform="translate(-614,-206) scale(1,1)"><path fill="none" stroke="#000000" d="M 654.4699280663395 328.42983215479234 A 11.5 11.5 0 0 1 663.5300719336605 349.57016784520766" stroke-miterlimit="10"/></g><g transform="translate(-614,-206) scale(1,1)"><path fill="none" stroke="#000000" d="M 654.9620804217335 328.232214457956 A 11.5 11.5 0 0 1 663.0379195782665 349.767785542044" stroke-miterlimit="10"/></g><g transform="translate(-614,-206) scale(1,1)"><path fill="none" stroke="#000000" d="M 653.8570436517505 328.71408730350095 A 11.5 11.5 0 0 1 664.1429563482495 349.28591269649905" stroke-miterlimit="10"/></g><g transform="translate(-614,-206) scale(1,1)"><path fill="none" stroke="#000000" d="M 653.0832988125835 329.13883135430575 A 11.5 11.5 0 0 1 664.9167011874165 348.86116864569425" stroke-miterlimit="10"/></g><g transform="translate(-614,-206) scale(1,1)"><path fill="none" stroke="#000000" d="M 652.3681432276155 329.60486957245524 A 11.5 11.5 0 0 1 665.6318567723846 348.39513042754476" stroke-miterlimit="10"/></g><g transform="translate(-614,-206) scale(1,1)"><path fill="none" stroke="#000000" d="M 651.8160069531241 330.02000869140517 A 11.5 11.5 0 0 1 666.1839930468759 347.97999130859483" stroke-miterlimit="10"/></g><g transform="translate(-614,-206) scale(1,1)"><path fill="none" stroke="#000000" d="M 657.1094116459884 327.6564698759303 A 11.5 11.5 0 0 1 660.8905883540116 350.3435301240697" stroke-miterlimit="10"/></g><g transform="translate(-614,-206) scale(1,1)"><g><path fill="none" stroke="none"/><text fill="#000000" stroke="none" font-family="Arial" font-size="13px" font-style="normal" font-weight="bold" text-decoration="none" x="638.97998046875" y="370.5">IPlayer</text></g></g><g transform="translate(-614,-206) scale(1,1)"><path fill="none" stroke="#000000" d="M 658 377 L 653 495" stroke-miterlimit="10"/></g><g transform="translate(-614,-206) scale(1,1)"><rect fill="#C0C0C0" stroke="none" x="855" y="431" width="88" height="44" opacity="0.2"/></g><g transform="translate(-614,-206) scale(1,1)"><rect fill="#ffffff" stroke="none" x="848" y="424" width="88" height="44"/></g><g transform="translate(-614,-206) scale(1,1)"><path fill="none" stroke="#000000" d="M 848 424 L 936 424 L 936 468 L 848 468 L 848 424 Z Z" stroke-miterlimit="10"/></g><g transform="translate(-614,-206) scale(1,1)"><path fill="none" stroke="#000000" d="M 848 449 L 936 449" stroke-miterlimit="10"/></g><g transform="translate(-614,-206) scale(1,1)"><path fill="none" stroke="#000000" d="M 848 459 L 936 459" stroke-miterlimit="10"/></g><g transform="translate(-614,-206) scale(1,1)"><g><path fill="none" stroke="none"/><text fill="#000000" stroke="none" font-family="Arial" font-size="13px" font-style="normal" font-weight="bold" text-decoration="none" x="862.740478515625" y="443.5">APlayerUI</text></g></g><g transform="translate(-614,-206) scale(1,1)"><path fill="none" stroke="#000000" d="M 695 364 L 776 392 L 847 425" stroke-miterlimit="10"/></g><g transform="translate(-614,-206) scale(1,1)"><path fill="#C0C0C0" stroke="none" d="M 1554.87451171875 426.5 C 1554.87451171875 420.1487248 1560.02323651875 415 1566.37451171875 415 C 1572.72578691875 415 1577.87451171875 420.1487248 1577.87451171875 426.5 C 1577.87451171875 432.8512752 1572.72578691875 438 1566.37451171875 438 C 1560.02323651875 438 1554.87451171875 432.8512752 1554.87451171875 426.5 Z" opacity="0.2"/></g><g transform="translate(-614,-206) scale(1,1)"><path fill="#ffffff" stroke="none" d="M 1547.87451171875 419.5 C 1547.87451171875 413.1487248 1553.02323651875 408 1559.37451171875 408 C 1565.72578691875 408 1570.87451171875 413.1487248 1570.87451171875 419.5 C 1570.87451171875 425.8512752 1565.72578691875 431 1559.37451171875 431 C 1553.02323651875 431 1547.87451171875 425.8512752 1547.87451171875 419.5 Z"/></g><g transform="translate(-614,-206) scale(1,1)"><path fill="none" stroke="#000000" d="M 1547.87451171875 419.5 C 1547.87451171875 413.1487248 1553.02323651875 408 1559.37451171875 408 C 1565.72578691875 408 1570.87451171875 413.1487248 1570.87451171875 419.5 C 1570.87451171875 425.8512752 1565.72578691875 431 1559.37451171875 431 C 1553.02323651875 431 1547.87451171875 425.8512752 1547.87451171875 419.5 Z" stroke-miterlimit="10"/></g><g transform="translate(-614,-206) scale(1,1)"><g><path fill="none" stroke="none"/><text fill="#000000" stroke="none" font-family="Arial" font-size="13px" font-style="normal" font-weight="bold" text-decoration="none" x="1505.90185546875" y="450.5">IEndGameContext</text></g></g><g transform="translate(-614,-206) scale(1,1)"><path fill="none" stroke="#000000" d="M 1685.0665426396681 413.20548320647293 A 11.5 11.5 0 0 1 1704.9334573603319 424.79451679352707" stroke-miterlimit="10"/></g><g transform="translate(-614,-206) scale(1,1)"><path fill="none" stroke="#000000" d="M 1690.0235927227752 429.36751516088515 A 11.5 11.5 0 0 1 1699.9764072772248 408.63248483911485" stroke-miterlimit="10"/></g><g transform="translate(-614,-206) scale(1,1)"><g><path fill="none" stroke="none"/><text fill="#000000" stroke="none" font-family="Arial" font-size="13px" font-style="normal" font-weight="bold" text-decoration="none" x="1644.050537109375" y="450.5">IEndHandContext</text></g></g><g transform="translate(-614,-206) scale(1,1)"><rect fill="#C0C0C0" stroke="none" x="1503" y="535" width="123.13720703125" height="44" opacity="0.2"/></g><g transform="translate(-614,-206) scale(1,1)"><rect fill="#ffffff" stroke="none" x="1496" y="528" width="123.13720703125" height="44"/></g><g transform="translate(-614,-206) scale(1,1)"><path fill="none" stroke="#000000" d="M 1496 528 L 1619.13720703125 528 L 1619.13720703125 572 L 1496 572 L 1496 528 Z Z" stroke-miterlimit="10"/></g><g transform="translate(-614,-206) scale(1,1)"><path fill="none" stroke="#000000" d="M 1496 553 L 1619.13720703125 553" stroke-miterlimit="10"/></g><g transform="translate(-614,-206) scale(1,1)"><path fill="none" stroke="#000000" d="M 1496 563 L 1619.13720703125 563" stroke-miterlimit="10"/></g><g transform="translate(-614,-206) scale(1,1)"><g><path fill="none" stroke="none"/><text fill="#000000" stroke="none" font-family="Arial" font-size="13px" font-style="normal" font-weight="bold" text-decoration="none" x="1505.90185546875" y="547.5">EndGameContext</text></g></g><g transform="translate(-614,-206) scale(1,1)"><rect fill="#C0C0C0" stroke="none" x="1639" y="535" width="119.50634765625" height="44" opacity="0.2"/></g><g transform="translate(-614,-206) scale(1,1)"><rect fill="#ffffff" stroke="none" x="1632" y="528" width="119.50634765625" height="44"/></g><g transform="translate(-614,-206) scale(1,1)"><path fill="none" stroke="#000000" d="M 1632 528 L 1751.50634765625 528 L 1751.50634765625 572 L 1632 572 L 1632 528 Z Z" stroke-miterlimit="10"/></g><g transform="translate(-614,-206) scale(1,1)"><path fill="none" stroke="#000000" d="M 1632 553 L 1751.50634765625 553" stroke-miterlimit="10"/></g><g transform="translate(-614,-206) scale(1,1)"><path fill="none" stroke="#000000" d="M 1632 563 L 1751.50634765625 563" stroke-miterlimit="10"/></g><g transform="translate(-614,-206) scale(1,1)"><g><path fill="none" stroke="none"/><text fill="#000000" stroke="none" font-family="Arial" font-size="13px" font-style="normal" font-weight="bold" text-decoration="none" x="1642.247802734375" y="547.5">EndHandContext</text></g></g><g transform="translate(-614,-206) scale(1,1)"><path fill="none" stroke="#000000" d="M 1559 457 L 1557 527" stroke-miterlimit="10"/></g><g transform="translate(-614,-206) scale(1,1)"><path fill="none" stroke="#000000" d="M 1694 457 L 1692 527" stroke-miterlimit="10"/></g><g transform="translate(-614,-206) scale(1,1)"><path fill="none" stroke="#000000" d="M 1265 973 L 1265 1023" stroke-miterlimit="10" stroke-dasharray="3"/></g><g transform="translate(-614,-206) scale(1,1)"><path fill="none" stroke="#000000" d="M 1260.7904822439841 1012.8373251423759 L 1265 1023 L 1269.2095177560159 1012.8373251423759" stroke-miterlimit="10"/></g><g transform="translate(-614,-206) scale(1,1)"><path fill="none" stroke="#000000" d="M 2449 457 L 2448 527" stroke-miterlimit="10"/></g><g transform="translate(-614,-206) scale(1,1)"><path fill="#C0C0C0" stroke="none" d="M 2445.385009765625 426.5 C 2445.385009765625 420.1487248 2450.533734565625 415 2456.885009765625 415 C 2463.236284965625 415 2468.385009765625 420.1487248 2468.385009765625 426.5 C 2468.385009765625 432.8512752 2463.236284965625 438 2456.885009765625 438 C 2450.533734565625 438 2445.385009765625 432.8512752 2445.385009765625 426.5 Z" opacity="0.2"/></g><g transform="translate(-614,-206) scale(1,1)"><path fill="#ffffff" stroke="none" d="M 2438.385009765625 419.5 C 2438.385009765625 413.1487248 2443.533734565625 408 2449.885009765625 408 C 2456.236284965625 408 2461.385009765625 413.1487248 2461.385009765625 419.5 C 2461.385009765625 425.8512752 2456.236284965625 431 2449.885009765625 431 C 2443.533734565625 431 2438.385009765625 425.8512752 2438.385009765625 419.5 Z"/></g><g transform="translate(-614,-206) scale(1,1)"><path fill="none" stroke="#000000" d="M 2438.385009765625 419.5 C 2438.385009765625 413.1487248 2443.533734565625 408 2449.885009765625 408 C 2456.236284965625 408 2461.385009765625 413.1487248 2461.385009765625 419.5 C 2461.385009765625 425.8512752 2456.236284965625 431 2449.885009765625 431 C 2443.533734565625 431 2438.385009765625 425.8512752 2438.385009765625 419.5 Z" stroke-miterlimit="10"/></g><g transform="translate(-614,-206) scale(1,1)"><g><path fill="none" stroke="none"/><text fill="#000000" stroke="none" font-family="Arial" font-size="13px" font-style="normal" font-weight="bold" text-decoration="none" x="2412.313232421875" y="450.5">ITurnContext</text></g></g><g transform="translate(-614,-206) scale(1,1)"><rect fill="#C0C0C0" stroke="none" x="2391" y="535" width="128.158203125" height="44" opacity="0.2"/></g><g transform="translate(-614,-206) scale(1,1)"><rect fill="#ffffff" stroke="none" x="2384" y="528" width="128.158203125" height="44"/></g><g transform="translate(-614,-206) scale(1,1)"><path fill="none" stroke="#000000" d="M 2384 528 L 2512.158203125 528 L 2512.158203125 572 L 2384 572 L 2384 528 Z Z" stroke-miterlimit="10"/></g><g transform="translate(-614,-206) scale(1,1)"><path fill="none" stroke="#000000" d="M 2384 553 L 2512.158203125 553" stroke-miterlimit="10"/></g><g transform="translate(-614,-206) scale(1,1)"><path fill="none" stroke="#000000" d="M 2384 563 L 2512.158203125 563" stroke-miterlimit="10"/></g><g transform="translate(-614,-206) scale(1,1)"><g><path fill="none" stroke="none"/><text fill="#000000" stroke="none" font-family="Arial" font-size="13px" font-style="normal" font-weight="bold" text-decoration="none" x="2412.313232421875" y="547.5">TurnContext</text></g></g><g transform="translate(-614,-206) scale(1,1)"><path fill="#C0C0C0" stroke="none" d="M 1826.852294921875 426.5 C 1826.852294921875 420.1487248 1832.001019721875 415 1838.352294921875 415 C 1844.703570121875 415 1849.852294921875 420.1487248 1849.852294921875 426.5 C 1849.852294921875 432.8512752 1844.703570121875 438 1838.352294921875 438 C 1832.001019721875 438 1826.852294921875 432.8512752 1826.852294921875 426.5 Z" opacity="0.2"/></g><g transform="translate(-614,-206) scale(1,1)"><path fill="#ffffff" stroke="none" d="M 1819.852294921875 419.5 C 1819.852294921875 413.1487248 1825.001019721875 408 1831.352294921875 408 C 1837.703570121875 408 1842.852294921875 413.1487248 1842.852294921875 419.5 C 1842.852294921875 425.8512752 1837.703570121875 431 1831.352294921875 431 C 1825.001019721875 431 1819.852294921875 425.8512752 1819.852294921875 419.5 Z"/></g><g transform="translate(-614,-206) scale(1,1)"><path fill="none" stroke="#000000" d="M 1819.852294921875 419.5 C 1819.852294921875 413.1487248 1825.001019721875 408 1831.352294921875 408 C 1837.703570121875 408 1842.852294921875 413.1487248 1842.852294921875 419.5 C 1842.852294921875 425.8512752 1837.703570121875 431 1831.352294921875 431 C 1825.001019721875 431 1819.852294921875 425.8512752 1819.852294921875 419.5 Z" stroke-miterlimit="10"/></g><g transform="translate(-614,-206) scale(1,1)"><g><path fill="none" stroke="none"/><text fill="#000000" stroke="none" font-family="Arial" font-size="13px" font-style="normal" font-weight="bold" text-decoration="none" x="1776.426025390625" y="450.5">IEndRoundContext</text></g></g><g transform="translate(-614,-206) scale(1,1)"><rect fill="#C0C0C0" stroke="none" x="1775" y="535" width="123.0927734375" height="44" opacity="0.2"/></g><g transform="translate(-614,-206) scale(1,1)"><rect fill="#ffffff" stroke="none" x="1768" y="528" width="123.0927734375" height="44"/></g><g transform="translate(-614,-206) scale(1,1)"><path fill="none" stroke="#000000" d="M 1768 528 L 1891.0927734375 528 L 1891.0927734375 572 L 1768 572 L 1768 528 Z Z" stroke-miterlimit="10"/></g><g transform="translate(-614,-206) scale(1,1)"><path fill="none" stroke="#000000" d="M 1768 553 L 1891.0927734375 553" stroke-miterlimit="10"/></g><g transform="translate(-614,-206) scale(1,1)"><path fill="none" stroke="#000000" d="M 1768 563 L 1891.0927734375 563" stroke-miterlimit="10"/></g><g transform="translate(-614,-206) scale(1,1)"><g><path fill="none" stroke="none"/><text fill="#000000" stroke="none" font-family="Arial" font-size="13px" font-style="normal" font-weight="bold" text-decoration="none" x="1776.426025390625" y="547.5">EndRoundContext</text></g></g><g transform="translate(-614,-206) scale(1,1)"><path fill="none" stroke="#000000" d="M 1831 457 L 1829 527" stroke-miterlimit="10"/></g><g transform="translate(-614,-206) scale(1,1)"><path fill="#C0C0C0" stroke="none" d="M 2010.87451171875 426.5 C 2010.87451171875 420.1487248 2016.02323651875 415 2022.37451171875 415 C 2028.72578691875 415 2033.87451171875 420.1487248 2033.87451171875 426.5 C 2033.87451171875 432.8512752 2028.72578691875 438 2022.37451171875 438 C 2016.02323651875 438 2010.87451171875 432.8512752 2010.87451171875 426.5 Z" opacity="0.2"/></g><g transform="translate(-614,-206) scale(1,1)"><path fill="#ffffff" stroke="none" d="M 2003.87451171875 419.5 C 2003.87451171875 413.1487248 2009.02323651875 408 2015.37451171875 408 C 2021.72578691875 408 2026.87451171875 413.1487248 2026.87451171875 419.5 C 2026.87451171875 425.8512752 2021.72578691875 431 2015.37451171875 431 C 2009.02323651875 431 2003.87451171875 425.8512752 2003.87451171875 419.5 Z"/></g><g transform="translate(-614,-206) scale(1,1)"><path fill="none" stroke="#000000" d="M 2003.87451171875 419.5 C 2003.87451171875 413.1487248 2009.02323651875 408 2015.37451171875 408 C 2021.72578691875 408 2026.87451171875 413.1487248 2026.87451171875 419.5 C 2026.87451171875 425.8512752 2021.72578691875 431 2015.37451171875 431 C 2009.02323651875 431 2003.87451171875 425.8512752 2003.87451171875 419.5 Z" stroke-miterlimit="10"/></g><g transform="translate(-614,-206) scale(1,1)"><g><path fill="none" stroke="none"/><text fill="#000000" stroke="none" font-family="Arial" font-size="13px" font-style="normal" font-weight="bold" text-decoration="none" x="1959.740478515625" y="450.5">IStartGameContext</text></g></g><g transform="translate(-614,-206) scale(1,1)"><path fill="#C0C0C0" stroke="none" d="M 2145.05908203125 426.5 C 2145.05908203125 420.1487248 2150.20780683125 415 2156.55908203125 415 C 2162.91035723125 415 2168.05908203125 420.1487248 2168.05908203125 426.5 C 2168.05908203125 432.8512752 2162.91035723125 438 2156.55908203125 438 C 2150.20780683125 438 2145.05908203125 432.8512752 2145.05908203125 426.5 Z" opacity="0.2"/></g><g transform="translate(-614,-206) scale(1,1)"><path fill="#ffffff" stroke="none" d="M 2138.05908203125 419.5 C 2138.05908203125 413.1487248 2143.20780683125 408 2149.55908203125 408 C 2155.91035723125 408 2161.05908203125 413.1487248 2161.05908203125 419.5 C 2161.05908203125 425.8512752 2155.91035723125 431 2149.55908203125 431 C 2143.20780683125 431 2138.05908203125 425.8512752 2138.05908203125 419.5 Z"/></g><g transform="translate(-614,-206) scale(1,1)"><path fill="none" stroke="#000000" d="M 2138.05908203125 419.5 C 2138.05908203125 413.1487248 2143.20780683125 408 2149.55908203125 408 C 2155.91035723125 408 2161.05908203125 413.1487248 2161.05908203125 419.5 C 2161.05908203125 425.8512752 2155.91035723125 431 2149.55908203125 431 C 2143.20780683125 431 2138.05908203125 425.8512752 2138.05908203125 419.5 Z" stroke-miterlimit="10"/></g><g transform="translate(-614,-206) scale(1,1)"><g><path fill="none" stroke="none"/><text fill="#000000" stroke="none" font-family="Arial" font-size="13px" font-style="normal" font-weight="bold" text-decoration="none" x="2096.08642578125" y="450.5">IStartHandContext</text></g></g><g transform="translate(-614,-206) scale(1,1)"><path fill="none" stroke="#000000" d="M 2278.3846153846152 414.5769230769229 A 11.5 11.5 0 0 1 2299.6153846153848 423.423076923077" stroke-miterlimit="10"/></g><g transform="translate(-614,-206) scale(1,1)"><g><path fill="none" stroke="none"/><text fill="#000000" stroke="none" font-family="Arial" font-size="13px" font-style="normal" font-weight="bold" text-decoration="none" x="2232.79736328125" y="450.5">IStartRoundContext</text></g></g><g transform="translate(-614,-206) scale(1,1)"><rect fill="#C0C0C0" stroke="none" x="1959" y="535" width="123.13720703125" height="44" opacity="0.2"/></g><g transform="translate(-614,-206) scale(1,1)"><rect fill="#ffffff" stroke="none" x="1952" y="528" width="123.13720703125" height="44"/></g><g transform="translate(-614,-206) scale(1,1)"><path fill="none" stroke="#000000" d="M 1952 528 L 2075.13720703125 528 L 2075.13720703125 572 L 1952 572 L 1952 528 Z Z" stroke-miterlimit="10"/></g><g transform="translate(-614,-206) scale(1,1)"><path fill="none" stroke="#000000" d="M 1952 553 L 2075.13720703125 553" stroke-miterlimit="10"/></g><g transform="translate(-614,-206) scale(1,1)"><path fill="none" stroke="#000000" d="M 1952 563 L 2075.13720703125 563" stroke-miterlimit="10"/></g><g transform="translate(-614,-206) scale(1,1)"><g><path fill="none" stroke="none"/><text fill="#000000" stroke="none" font-family="Arial" font-size="13px" font-style="normal" font-weight="bold" text-decoration="none" x="1959.740478515625" y="547.5">StartGameContext</text></g></g><g transform="translate(-614,-206) scale(1,1)"><path fill="none" stroke="#000000" d="M 2015 457 L 2013 527" stroke-miterlimit="10"/></g><g transform="translate(-614,-206) scale(1,1)"><rect fill="#C0C0C0" stroke="none" x="2095" y="535" width="119.50634765625" height="44" opacity="0.2"/></g><g transform="translate(-614,-206) scale(1,1)"><rect fill="#ffffff" stroke="none" x="2088" y="528" width="119.50634765625" height="44"/></g><g transform="translate(-614,-206) scale(1,1)"><path fill="none" stroke="#000000" d="M 2088 528 L 2207.50634765625 528 L 2207.50634765625 572 L 2088 572 L 2088 528 Z Z" stroke-miterlimit="10"/></g><g transform="translate(-614,-206) scale(1,1)"><path fill="none" stroke="#000000" d="M 2088 553 L 2207.50634765625 553" stroke-miterlimit="10"/></g><g transform="translate(-614,-206) scale(1,1)"><path fill="none" stroke="#000000" d="M 2088 563 L 2207.50634765625 563" stroke-miterlimit="10"/></g><g transform="translate(-614,-206) scale(1,1)"><g><path fill="none" stroke="none"/><text fill="#000000" stroke="none" font-family="Arial" font-size="13px" font-style="normal" font-weight="bold" text-decoration="none" x="2096.08642578125" y="547.5">StartHandContext</text></g></g><g transform="translate(-614,-206) scale(1,1)"><path fill="none" stroke="#000000" d="M 2149 457 L 2147 527" stroke-miterlimit="10"/></g><g transform="translate(-614,-206) scale(1,1)"><rect fill="#C0C0C0" stroke="none" x="2231" y="535" width="128.158203125" height="44" opacity="0.2"/></g><g transform="translate(-614,-206) scale(1,1)"><rect fill="#ffffff" stroke="none" x="2224" y="528" width="128.158203125" height="44"/></g><g transform="translate(-614,-206) scale(1,1)"><path fill="none" stroke="#000000" d="M 2224 528 L 2352.158203125 528 L 2352.158203125 572 L 2224 572 L 2224 528 Z Z" stroke-miterlimit="10"/></g><g transform="translate(-614,-206) scale(1,1)"><path fill="none" stroke="#000000" d="M 2224 553 L 2352.158203125 553" stroke-miterlimit="10"/></g><g transform="translate(-614,-206) scale(1,1)"><path fill="none" stroke="#000000" d="M 2224 563 L 2352.158203125 563" stroke-miterlimit="10"/></g><g transform="translate(-614,-206) scale(1,1)"><g><path fill="none" stroke="none"/><text fill="#000000" stroke="none" font-family="Arial" font-size="13px" font-style="normal" font-weight="bold" text-decoration="none" x="2232.79736328125" y="547.5">StartRoundContext</text></g></g><g transform="translate(-614,-206) scale(1,1)"><path fill="none" stroke="#000000" d="M 2289 457 L 2288 527" stroke-miterlimit="10"/></g><g transform="translate(-614,-206) scale(1,1)"><g><path fill="none" stroke="none"/><text fill="#000000" stroke="none" font-family="Arial" font-size="22px" font-style="normal" font-weight="normal" text-decoration="none" x="1869" y="403">Serialize / Deserialize</text></g></g><g transform="translate(-614,-206) scale(1,1)"><rect fill="#C0C0C0" stroke="none" x="703" y="615" width="50.919921875" height="44" opacity="0.2"/></g><g transform="translate(-614,-206) scale(1,1)"><rect fill="#ffffff" stroke="none" x="696" y="608" width="50.919921875" height="44"/></g><g transform="translate(-614,-206) scale(1,1)"><path fill="none" stroke="#000000" d="M 696 608 L 746.919921875 608 L 746.919921875 652 L 696 652 L 696 608 Z Z" stroke-miterlimit="10"/></g><g transform="translate(-614,-206) scale(1,1)"><path fill="none" stroke="#000000" d="M 696 633 L 746.919921875 633" stroke-miterlimit="10"/></g><g transform="translate(-614,-206) scale(1,1)"><path fill="none" stroke="#000000" d="M 696 643 L 746.919921875 643" stroke-miterlimit="10"/></g><g transform="translate(-614,-206) scale(1,1)"><g><path fill="none" stroke="none"/><text fill="#000000" stroke="none" font-family="Arial" font-size="13px" font-style="normal" font-weight="bold" text-decoration="none" x="703.035888671875" y="627.5">Player</text></g></g><g transform="translate(-614,-206) scale(1,1)"><path fill="none" stroke="#000000" d="M 666 541 L 707 607" stroke-miterlimit="10"/></g><g transform="translate(-614,-206) scale(1,1)"><rect fill="#C0C0C0" stroke="none" x="1359" y="535" width="88.47265625" height="44" opacity="0.2"/></g><g transform="translate(-614,-206) scale(1,1)"><rect fill="#ffffff" stroke="none" x="1352" y="528" width="88.47265625" height="44"/></g><g transform="translate(-614,-206) scale(1,1)"><path fill="none" stroke="#000000" d="M 1352 528 L 1440.47265625 528 L 1440.47265625 572 L 1352 572 L 1352 528 Z Z" stroke-miterlimit="10"/></g><g transform="translate(-614,-206) scale(1,1)"><path fill="none" stroke="#000000" d="M 1352 553 L 1440.47265625 553" stroke-miterlimit="10"/></g><g transform="translate(-614,-206) scale(1,1)"><path fill="none" stroke="#000000" d="M 1352 563 L 1440.47265625 563" stroke-miterlimit="10"/></g><g transform="translate(-614,-206) scale(1,1)"><g><path fill="none" stroke="none"/><text fill="#000000" stroke="none" font-family="Arial" font-size="13px" font-style="normal" font-weight="bold" text-decoration="none" x="1359.746826171875" y="547.5">PlayerAction</text></g></g><g transform="translate(-614,-206) scale(1,1)"><rect fill="#C0C0C0" stroke="none" x="1143" y="343" width="118.814453125" height="47" opacity="0.2"/></g><g transform="translate(-614,-206) scale(1,1)"><rect fill="#ffffff" stroke="none" x="1136" y="336" width="118.814453125" height="47"/></g><g transform="translate(-614,-206) scale(1,1)"><path fill="none" stroke="#000000" d="M 1136 336 L 1254.814453125 336 L 1254.814453125 383 L 1136 383 L 1136 336 Z Z" stroke-miterlimit="10"/></g><g transform="translate(-614,-206) scale(1,1)"><path fill="none" stroke="#000000" d="M 1136 374 L 1254.814453125 374" stroke-miterlimit="10"/></g><g transform="translate(-614,-206) scale(1,1)"><g><path fill="none" stroke="none"/><text fill="#000000" stroke="none" font-family="Arial" font-size="13px" font-style="normal" font-weight="normal" text-decoration="none" x="1152.043212890625" y="353.5">«enumeration»</text></g></g><g transform="translate(-614,-206) scale(1,1)"><g><path fill="none" stroke="none"/><text fill="#000000" stroke="none" font-family="Arial" font-size="13px" font-style="normal" font-weight="bold" text-decoration="none" x="1144.46728515625" y="368.5">PlayerActionType</text></g></g><g transform="translate(-614,-206) scale(1,1)"><rect fill="#C0C0C0" stroke="none" x="823" y="351" width="123.8798828125" height="37" opacity="0.2"/></g><g transform="translate(-614,-206) scale(1,1)"><rect fill="#ffffff" stroke="none" x="816" y="344" width="123.8798828125" height="37"/></g><g transform="translate(-614,-206) scale(1,1)"><path fill="none" stroke="#000000" d="M 816 344 L 939.8798828125 344 L 939.8798828125 381 L 816 381 L 816 344 Z Z" stroke-miterlimit="10"/></g><g transform="translate(-614,-206) scale(1,1)"><g><path fill="none" stroke="none"/><text fill="#000000" stroke="none" font-family="Arial" font-size="13px" font-style="normal" font-weight="normal" text-decoration="none" x="843.608642578125" y="361.5">«dataType»</text></g></g><g transform="translate(-614,-206) scale(1,1)"><g><path fill="none" stroke="none"/><text fill="#000000" stroke="none" font-family="Arial" font-size="13px" font-style="normal" font-weight="bold" text-decoration="none" x="824.11181640625" y="376.5">PlayerActionName</text></g></g><g transform="translate(-614,-206) scale(1,1)"><path fill="none" stroke="#000000" d="M 1221 384 L 1372 527" stroke-miterlimit="10" stroke-dasharray="3"/></g><g transform="translate(-614,-206) scale(1,1)"><path fill="none" stroke="#000000" d="M 1361.7265831222257 523.0684728596303 L 1372 527 L 1367.5156067611438 516.9555877583952" stroke-miterlimit="10"/></g><g transform="translate(-614,-206) scale(1,1)"><path fill="none" stroke="#000000" d="M 1351 534 L 932 382" stroke-miterlimit="10" stroke-dasharray="3"/></g><g transform="translate(-614,-206) scale(1,1)"><path fill="none" stroke="#000000" d="M 942.989014889502 381.50852084652075 L 932 382 L 940.1179351891637 389.42287870468977" stroke-miterlimit="10"/></g><g transform="translate(-614,-206) scale(1,1)"><rect fill="#C0C0C0" stroke="none" x="871" y="615" width="61.03173828125" height="44" opacity="0.2"/></g><g transform="translate(-614,-206) scale(1,1)"><rect fill="#ffffff" stroke="none" x="864" y="608" width="61.03173828125" height="44"/></g><g transform="translate(-614,-206) scale(1,1)"><path fill="none" stroke="#000000" d="M 864 608 L 925.03173828125 608 L 925.03173828125 652 L 864 652 L 864 608 Z Z" stroke-miterlimit="10"/></g><g transform="translate(-614,-206) scale(1,1)"><path fill="none" stroke="#000000" d="M 864 633 L 925.03173828125 633" stroke-miterlimit="10"/></g><g transform="translate(-614,-206) scale(1,1)"><path fill="none" stroke="#000000" d="M 864 643 L 925.03173828125 643" stroke-miterlimit="10"/></g><g transform="translate(-614,-206) scale(1,1)"><g><path fill="none" stroke="none"/><text fill="#000000" stroke="none" font-family="Arial" font-size="13px" font-style="normal" font-weight="bold" text-decoration="none" x="869.591796875" y="627.5">PlayerUI</text></g></g><g transform="translate(-614,-206) scale(1,1)"><path fill="none" stroke="#000000" d="M 892 469 L 894 607" stroke-miterlimit="10"/></g><g transform="translate(-614,-206) scale(1,1)"><path fill="none" stroke="#000000" d="M 1351 557 L 926 625" stroke-miterlimit="10" stroke-dasharray="3"/></g><g transform="translate(-614,-206) scale(1,1)"><path fill="none" stroke="#000000" d="M 935.369974263686 619.2377450335947 L 926 625 L 936.7001019030669 627.5510427797248" stroke-miterlimit="10"/></g><g transform="translate(-614,-206) scale(1,1)"><path fill="none" stroke="#000000" d="M 1239 946 L 1104 928 L 910 653" stroke-miterlimit="10" stroke-dasharray="3"/></g><g transform="translate(-614,-206) scale(1,1)"><path fill="none" stroke="#000000" d="M 919.298006322139 658.8776762783828 L 910 653 L 912.4185385678362 663.7308280759636" stroke-miterlimit="10"/></g><g transform="translate(-614,-206) scale(1,1)"><rect fill="#C0C0C0" stroke="none" x="1239" y="831" width="50.919921875" height="44" opacity="0.2"/></g><g transform="translate(-614,-206) scale(1,1)"><rect fill="#ffffff" stroke="none" x="1232" y="824" width="50.919921875" height="44"/></g><g transform="translate(-614,-206) scale(1,1)"><path fill="none" stroke="#000000" d="M 1232 824 L 1282.919921875 824 L 1282.919921875 868 L 1232 868 L 1232 824 Z Z" stroke-miterlimit="10"/></g><g transform="translate(-614,-206) scale(1,1)"><path fill="none" stroke="#000000" d="M 1232 849 L 1282.919921875 849" stroke-miterlimit="10"/></g><g transform="translate(-614,-206) scale(1,1)"><path fill="none" stroke="#000000" d="M 1232 859 L 1282.919921875 859" stroke-miterlimit="10"/></g><g transform="translate(-614,-206) scale(1,1)"><g><path fill="none" stroke="none"/><text fill="#000000" stroke="none" font-family="Arial" font-size="13px" font-style="normal" font-weight="bold" text-decoration="none" x="1243.371337890625" y="843.5">Main</text></g></g><g transform="translate(-614,-206) scale(1,1)"><rect fill="#C0C0C0" stroke="none" x="1399" y="831" width="114.47265625" height="44" opacity="0.2"/></g><g transform="translate(-614,-206) scale(1,1)"><rect fill="#ffffff" stroke="none" x="1392" y="824" width="114.47265625" height="44"/></g><g transform="translate(-614,-206) scale(1,1)"><path fill="none" stroke="#000000" d="M 1392 824 L 1506.47265625 824 L 1506.47265625 868 L 1392 868 L 1392 824 Z Z" stroke-miterlimit="10"/></g><g transform="translate(-614,-206) scale(1,1)"><path fill="none" stroke="#000000" d="M 1392 849 L 1506.47265625 849" stroke-miterlimit="10"/></g><g transform="translate(-614,-206) scale(1,1)"><path fill="none" stroke="#000000" d="M 1392 859 L 1506.47265625 859" stroke-miterlimit="10"/></g><g transform="translate(-614,-206) scale(1,1)"><g><path fill="none" stroke="none"/><text fill="#000000" stroke="none" font-family="Arial" font-size="13px" font-style="normal" font-weight="bold" text-decoration="none" x="1400.095947265625" y="843.5">ConsoleInterface</text></g></g><g transform="translate(-614,-206) scale(1,1)"><rect fill="#C0C0C0" stroke="none" x="1127" y="719" width="101.4345703125" height="44" opacity="0.2"/></g><g transform="translate(-614,-206) scale(1,1)"><rect fill="#ffffff" stroke="none" x="1120" y="712" width="101.4345703125" height="44"/></g><g transform="translate(-614,-206) scale(1,1)"><path fill="none" stroke="#000000" d="M 1120 712 L 1221.4345703125 712 L 1221.4345703125 756 L 1120 756 L 1120 712 Z Z" stroke-miterlimit="10"/></g><g transform="translate(-614,-206) scale(1,1)"><path fill="none" stroke="#000000" d="M 1120 737 L 1221.4345703125 737" stroke-miterlimit="10"/></g><g transform="translate(-614,-206) scale(1,1)"><path fill="none" stroke="#000000" d="M 1120 747 L 1221.4345703125 747" stroke-miterlimit="10"/></g><g transform="translate(-614,-206) scale(1,1)"><g><path fill="none" stroke="none"/><text fill="#000000" stroke="none" font-family="Arial" font-size="13px" font-style="normal" font-weight="bold" text-decoration="none" x="1128.080078125" y="731.5">ConsoleConfig</text></g></g><g transform="translate(-614,-206) scale(1,1)"><path fill="none" stroke="#000000" d="M 1188 757 L 1239 823" stroke-miterlimit="10" stroke-dasharray="3"/></g><g transform="translate(-614,-206) scale(1,1)"><path fill="none" stroke="#000000" d="M 1229.4551295906308 817.5323269237867 L 1239 823 L 1236.1169861174897 812.3845286984866" stroke-miterlimit="10"/></g><g transform="translate(-614,-206) scale(1,1)"><path fill="none" stroke="#000000" d="M 1119 715 L 926 642" stroke-miterlimit="10" stroke-dasharray="3"/></g><g transform="translate(-614,-206) scale(1,1)"><path fill="none" stroke="#000000" d="M 936.9946833920734 641.6580393179551 L 926 642 L 934.0162179007074 649.532612466361" stroke-miterlimit="10"/></g><g transform="translate(-614,-206) scale(1,1)"><path fill="none" stroke="#000000" d="M 925 653 L 1192 848 L 1231 847" stroke-miterlimit="10" stroke-dasharray="3"/></g><g transform="translate(-614,-206) scale(1,1)"><path fill="none" stroke="#000000" d="M 1220.94856517138 851.4686304262053 L 1231 847 L 1220.732763395042 843.0523611490146" stroke-miterlimit="10"/></g><g transform="translate(-614,-206) scale(1,1)"><rect fill="#C0C0C0" stroke="none" x="2551" y="535" width="79.8017578125" height="44" opacity="0.2"/></g><g transform="translate(-614,-206) scale(1,1)"><rect fill="#ffffff" stroke="none" x="2544" y="528" width="79.8017578125" height="44"/></g><g transform="translate(-614,-206) scale(1,1)"><path fill="none" stroke="#000000" d="M 2544 528 L 2623.8017578125 528 L 2623.8017578125 572 L 2544 572 L 2544 528 Z Z" stroke-miterlimit="10"/></g><g transform="translate(-614,-206) scale(1,1)"><path fill="none" stroke="#000000" d="M 2544 553 L 2623.8017578125 553" stroke-miterlimit="10"/></g><g transform="translate(-614,-206) scale(1,1)"><path fill="none" stroke="#000000" d="M 2544 563 L 2623.8017578125 563" stroke-miterlimit="10"/></g><g transform="translate(-614,-206) scale(1,1)"><g><path fill="none" stroke="none"/><text fill="#000000" stroke="none" font-family="Arial" font-size="13px" font-style="normal" font-weight="bold" text-decoration="none" x="2549.931396484375" y="547.5">HandShake</text></g></g><g transform="translate(-614,-206) scale(1,1)"><rect fill="#C0C0C0" stroke="none" x="2671" y="535" width="61.7236328125" height="44" opacity="0.2"/></g><g transform="translate(-614,-206) scale(1,1)"><rect fill="#ffffff" stroke="none" x="2664" y="528" width="61.7236328125" height="44"/></g><g transform="translate(-614,-206) scale(1,1)"><path fill="none" stroke="#000000" d="M 2664 528 L 2725.7236328125 528 L 2725.7236328125 572 L 2664 572 L 2664 528 Z Z" stroke-miterlimit="10"/></g><g transform="translate(-614,-206) scale(1,1)"><path fill="none" stroke="#000000" d="M 2664 553 L 2725.7236328125 553" stroke-miterlimit="10"/></g><g transform="translate(-614,-206) scale(1,1)"><path fill="none" stroke="#000000" d="M 2664 563 L 2725.7236328125 563" stroke-miterlimit="10"/></g><g transform="translate(-614,-206) scale(1,1)"><g><path fill="none" stroke="none"/><text fill="#000000" stroke="none" font-family="Arial" font-size="13px" font-style="normal" font-weight="bold" text-decoration="none" x="2671.016845703125" y="547.5">Protocol</text></g></g><g transform="translate(-614,-206) scale(1,1)"><rect fill="#C0C0C0" stroke="none" x="1855" y="623" width="118.79541015625" height="47" opacity="0.2"/></g><g transform="translate(-614,-206) scale(1,1)"><rect fill="#ffffff" stroke="none" x="1848" y="616" width="118.79541015625" height="47"/></g><g transform="translate(-614,-206) scale(1,1)"><path fill="none" stroke="#000000" d="M 1848 616 L 1966.79541015625 616 L 1966.79541015625 663 L 1848 663 L 1848 616 Z Z" stroke-miterlimit="10"/></g><g transform="translate(-614,-206) scale(1,1)"><path fill="none" stroke="#000000" d="M 1848 654 L 1966.79541015625 654" stroke-miterlimit="10"/></g><g transform="translate(-614,-206) scale(1,1)"><g><path fill="none" stroke="none"/><text fill="#000000" stroke="none" font-family="Arial" font-size="13px" font-style="normal" font-weight="normal" text-decoration="none" x="1864.03369140625" y="633.5">«enumeration»</text></g></g><g transform="translate(-614,-206) scale(1,1)"><g><path fill="none" stroke="none"/><text fill="#000000" stroke="none" font-family="Arial" font-size="13px" font-style="normal" font-weight="bold" text-decoration="none" x="1856.0927734375" y="648.5">GameRoundType</text></g></g><g transform="translate(-614,-206) scale(1,1)"><path fill="none" stroke="#000000" d="M 1936 615 L 1986 573" stroke-miterlimit="10" stroke-dasharray="3"/></g><g transform="translate(-614,-206) scale(1,1)"><path fill="none" stroke="#000000" d="M 1980.9259189305699 582.7598002695163 L 1986 573 L 1975.5108619139144 576.313303821117" stroke-miterlimit="10"/></g><g transform="translate(-614,-206) scale(1,1)"><rect fill="#C0C0C0" stroke="none" x="2007" y="623" width="103.630859375" height="47" opacity="0.2"/></g><g transform="translate(-614,-206) scale(1,1)"><rect fill="#ffffff" stroke="none" x="2000" y="616" width="103.630859375" height="47"/></g><g transform="translate(-614,-206) scale(1,1)"><path fill="none" stroke="#000000" d="M 2000 616 L 2103.630859375 616 L 2103.630859375 663 L 2000 663 L 2000 616 Z Z" stroke-miterlimit="10"/></g><g transform="translate(-614,-206) scale(1,1)"><path fill="none" stroke="#000000" d="M 2000 654 L 2103.630859375 654" stroke-miterlimit="10"/></g><g transform="translate(-614,-206) scale(1,1)"><g><path fill="none" stroke="none"/><text fill="#000000" stroke="none" font-family="Arial" font-size="13px" font-style="normal" font-weight="normal" text-decoration="none" x="2008.451416015625" y="633.5">«enumeration»</text></g></g><g transform="translate(-614,-206) scale(1,1)"><g><path fill="none" stroke="none"/><text fill="#000000" stroke="none" font-family="Arial" font-size="13px" font-style="normal" font-weight="bold" text-decoration="none" x="2006.65185546875" y="648.5">HandRankType</text></g></g><g transform="translate(-614,-206) scale(1,1)"><path fill="none" stroke="#000000" d="M 2041 615 L 2023 573" stroke-miterlimit="10" stroke-dasharray="3"/></g><g transform="translate(-614,-206) scale(1,1)"><path fill="none" stroke="#000000" d="M 2030.8724310758182 580.6827618052683 L 2023 573 L 2023.1341164273886 583.9991823688811" stroke-miterlimit="10"/></g><g transform="translate(-614,-206) scale(1,1)"><rect fill="#C0C0C0" stroke="none" x="1423" y="711" width="69.68994140625" height="44" opacity="0.2"/></g><g transform="translate(-614,-206) scale(1,1)"><rect fill="#ffffff" stroke="none" x="1416" y="704" width="69.68994140625" height="44"/></g><g transform="translate(-614,-206) scale(1,1)"><path fill="none" stroke="#000000" d="M 1416 704 L 1485.68994140625 704 L 1485.68994140625 748 L 1416 748 L 1416 704 Z Z" stroke-miterlimit="10"/></g><g transform="translate(-614,-206) scale(1,1)"><path fill="none" stroke="#000000" d="M 1416 729 L 1485.68994140625 729" stroke-miterlimit="10"/></g><g transform="translate(-614,-206) scale(1,1)"><path fill="none" stroke="#000000" d="M 1416 739 L 1485.68994140625 739" stroke-miterlimit="10"/></g><g transform="translate(-614,-206) scale(1,1)"><g><path fill="none" stroke="none"/><text fill="#000000" stroke="none" font-family="Arial" font-size="13px" font-style="normal" font-weight="bold" text-decoration="none" x="1425.19091796875" y="723.5">Manager</text></g></g><g transform="translate(-614,-206) scale(1,1)"><path fill="none" stroke="#000000" d="M 1449 823 L 1450 749" stroke-miterlimit="10" stroke-dasharray="3"/></g><g transform="translate(-614,-206) scale(1,1)"><path fill="none" stroke="#000000" d="M 1454.0718125418457 759.2186272377492 L 1450 749 L 1445.6535456458296 759.1048668742894" stroke-miterlimit="10"/></g><g transform="translate(-614,-206) scale(1,1)"><path fill="none" stroke="#000000" d="M 1415 748 L 1284 829" stroke-miterlimit="10" stroke-dasharray="3"/></g><g transform="translate(-614,-206) scale(1,1)"><path fill="none" stroke="#000000" d="M 1290.429962448209 820.0750023577245 L 1284 829 L 1294.8575964048302 827.2357436949765" stroke-miterlimit="10"/></g><g transform="translate(-614,-206) scale(1,1)"><path fill="none" stroke="#000000" d="M 926 633 L 1360 680 L 1415 708" stroke-miterlimit="10" stroke-dasharray="3"/></g><g transform="translate(-614,-206) scale(1,1)"><path fill="none" stroke="#000000" d="M 1404.0336121957316 707.140733727885 L 1415 708 L 1407.8531858263377 699.637999810623" stroke-miterlimit="10"/></g><g transform="translate(-614,-206) scale(1,1)"><path fill="none" stroke="#000000" d="M 1543 573 L 1464 703" stroke-miterlimit="10" stroke-dasharray="3"/></g><g transform="translate(-614,-206) scale(1,1)"><path fill="none" stroke="#000000" d="M 1465.6803261441123 692.1290982871975 L 1464 703 L 1472.875058329842 696.5012816923717" stroke-miterlimit="10"/></g><g transform="translate(-614,-206) scale(1,1)"><path fill="none" stroke="#000000" d="M 1660 573 L 1481 703" stroke-miterlimit="10" stroke-dasharray="3"/></g><g transform="translate(-614,-206) scale(1,1)"><path fill="none" stroke="#000000" d="M 1486.749237212445 693.6220326576044 L 1481 703 L 1491.6965489211238 700.434100318016" stroke-miterlimit="10"/></g><g transform="translate(-614,-206) scale(1,1)"><path fill="none" stroke="#000000" d="M 1779 573 L 1487 709" stroke-miterlimit="10" stroke-dasharray="3"/></g><g transform="translate(-614,-206) scale(1,1)"><path fill="none" stroke="#000000" d="M 1494.4351843485229 700.8933339958105 L 1487 709 L 1497.9897477765894 708.5251907678357" stroke-miterlimit="10"/></g><g transform="translate(-614,-206) scale(1,1)"><path fill="none" stroke="#000000" d="M 1951 570 L 1784 624 L 1487 715" stroke-miterlimit="10" stroke-dasharray="3"/></g><g transform="translate(-614,-206) scale(1,1)"><path fill="none" stroke="#000000" d="M 1495.4836040630364 707.9979672878776 L 1487 715 L 1497.9499987747065 716.0476291490429" stroke-miterlimit="10"/></g><g transform="translate(-614,-206) scale(1,1)"><path fill="none" stroke="#000000" d="M 2146 573 L 2144 672 L 1600 704 L 1487 721" stroke-miterlimit="10" stroke-dasharray="3"/></g><g transform="translate(-614,-206) scale(1,1)"><path fill="none" stroke="#000000" d="M 1496.423342264879 715.3254409370468 L 1487 721 L 1497.6758284105956 723.65079002328" stroke-miterlimit="10"/></g><g transform="translate(-614,-206) scale(1,1)"><path fill="none" stroke="#000000" d="M 2288 573 L 2288 680 L 1602 712 L 1487 723" stroke-miterlimit="10" stroke-dasharray="3"/></g><g transform="translate(-614,-206) scale(1,1)"><path fill="none" stroke="#000000" d="M 1496.7156805093744 717.8419429782366 L 1487 723 L 1497.5173206698564 726.2227264741848" stroke-miterlimit="10"/></g><g transform="translate(-614,-206) scale(1,1)"><path fill="none" stroke="#000000" d="M 2430 573 L 2336 696 L 1487 725" stroke-miterlimit="10" stroke-dasharray="3"/></g><g transform="translate(-614,-206) scale(1,1)"><path fill="none" stroke="#000000" d="M 1497.0130471579364 720.4460032265118 L 1487 725 L 1497.3004555457526 728.8601315456825" stroke-miterlimit="10"/></g><g transform="translate(-614,-206) scale(1,1)"><path fill="none" stroke="#000000" d="M 1239 949 L 1096 944 L 776 616 L 681 541" stroke-miterlimit="10" stroke-dasharray="3"/></g><g transform="translate(-614,-206) scale(1,1)"><path fill="none" stroke="#000000" d="M 691.5849119826563 543.9932654943085 L 681 541 L 686.3681047122818 550.6012213701163" stroke-miterlimit="10"/></g><g transform="translate(-614,-206) scale(1,1)"><path fill="none" stroke="#000000" d="M 815 380 L 776 392 L 768 480 L 682 508" stroke-miterlimit="10" stroke-dasharray="3"/></g><g transform="translate(-614,-206) scale(1,1)"><path fill="none" stroke="#000000" d="M 690.3601892258022 500.8510674846673 L 682 508 L 692.9666051534042 508.8564878337306" stroke-miterlimit="10"/></g><g transform="translate(-614,-206) scale(1,1)"><path fill="none" stroke="#000000" d="M 881 382 L 888 423" stroke-miterlimit="10" stroke-dasharray="3"/></g><g transform="translate(-614,-206) scale(1,1)"><path fill="none" stroke="#000000" d="M 882.1401827820024 413.6907281610397 L 888 423 L 890.439132753878 412.2738342634024" stroke-miterlimit="10"/></g><g transform="translate(-614,-206) scale(1,1)"><path fill="none" stroke="#000000" d="M 2554 573 L 2376 712 L 1487 725" stroke-miterlimit="10" stroke-dasharray="3"/></g><g transform="translate(-614,-206) scale(1,1)"><path fill="none" stroke="#000000" d="M 1497.1000385309392 720.6423375906865 L 1487 725 L 1497.2231383752198 729.0604730957252" stroke-miterlimit="10"/></g><g transform="translate(-614,-206) scale(1,1)"><path fill="none" stroke="#000000" d="M 2663 569 L 2408 728 L 1616 736 L 1487 728" stroke-miterlimit="10" stroke-dasharray="3"/></g><g transform="translate(-614,-206) scale(1,1)"><path fill="none" stroke="#000000" d="M 1497.4037434242082 724.4275886626472 L 1487 728 L 1496.8826338068125 732.8304812431526" stroke-miterlimit="10"/></g><g transform="translate(-614,-206) scale(1,1)"><path fill="none" stroke="#000000" d="M 1292 941 L 1328 928 L 1688 920 L 1691 573" stroke-miterlimit="10" stroke-dasharray="3"/></g><g transform="translate(-614,-206) scale(1,1)"><path fill="none" stroke="#000000" d="M 1695.121501985275 583.1986872383349 L 1691 573 L 1686.7027810970344 583.125902907889" stroke-miterlimit="10"/></g><g transform="translate(-614,-206) scale(1,1)"><path fill="none" stroke="#000000" d="M 941 380 L 1240 464 L 1776 488 L 1809 527" stroke-miterlimit="10" stroke-dasharray="3"/></g><g transform="translate(-614,-206) scale(1,1)"><path fill="none" stroke="#000000" d="M 1799.222010900214 521.9610587258368 L 1809 527 L 1805.6489871461347 516.5228480562116" stroke-miterlimit="10"/></g><g transform="translate(-614,-206) scale(1,1)"><path fill="none" stroke="#000000" d="M 1292 950 L 2872 952 L 2880 344 L 1720 344 L 1701.4166666666667 408" stroke-miterlimit="10"/></g><g transform="translate(-614,-206) scale(1,1)"><path fill="none" stroke="#000000" d="M 892 343 L 904 328 L 1584 320 L 1683.86181640625 413.653671875" stroke-miterlimit="10"/></g><g transform="translate(-614,-206) scale(1,1)"><path fill="none" stroke="#000000" d="M 1558 407 L 1552 304 L 736 304 L 670.7099609375 335.7472330729167" stroke-miterlimit="10"/></g><g transform="translate(-614,-206) scale(1,1)"><path fill="none" stroke="#000000" d="M 1831 407 L 1832 288 L 731 288 L 670.7099609375 333.9814453125" stroke-miterlimit="10"/></g><g transform="translate(-614,-206) scale(1,1)"><path fill="none" stroke="#000000" d="M 1695 407 L 1696 296 L 731 296 L 670.7099609375 334.6087646484375" stroke-miterlimit="10"/></g><g transform="translate(-614,-206) scale(1,1)"><path fill="none" stroke="#000000" d="M 2015 407 L 2016 272 L 736 272 L 670.7099609375 333.14501953125" stroke-miterlimit="10"/></g><g transform="translate(-614,-206) scale(1,1)"><path fill="none" stroke="#000000" d="M 2149 407 L 2152 256 L 736 256 L 670.7099609375 331.9740234375" stroke-miterlimit="10"/></g><g transform="translate(-614,-206) scale(1,1)"><path fill="none" stroke="#000000" d="M 2289 407 L 2288 240 L 736 240 L 670.7099609375 330.73414522058823" stroke-miterlimit="10"/></g><g transform="translate(-614,-206) scale(1,1)"><path fill="none" stroke="#000000" d="M 2449 407 L 2448 219 L 738 216 L 670.7099609375 329.63203125" stroke-miterlimit="10"/></g><g transform="translate(-614,-206) scale(1,1)"><path fill="none" stroke="#000000" d="M 1396 527 L 1392 312 L 736 312 L 670.7099609375 337.04833984375" stroke-miterlimit="10"/></g><g transform="translate(-614,-206) scale(1,1)"><path fill="none" stroke="#000000" d="M 1292 946 L 1368 936 L 2856 936 L 2864 352 L 2304 352 L 2293.5833333333335 408" stroke-miterlimit="10"/></g><g transform="translate(-614,-206) scale(1,1)"><g><path fill="none" stroke="none"/><text fill="#000000" stroke="none" font-family="Arial" font-size="28px" font-style="normal" font-weight="normal" text-decoration="none" x="1261" y="769">Client</text></g></g><g transform="translate(-614,-206) scale(1,1)"><rect fill="#C0C0C0" stroke="none" x="1967" y="1223" width="50.919921875" height="44" opacity="0.2"/></g><g transform="translate(-614,-206) scale(1,1)"><rect fill="#ffffff" stroke="none" x="1960" y="1216" width="50.919921875" height="44"/></g><g transform="translate(-614,-206) scale(1,1)"><path fill="none" stroke="#000000" d="M 1960 1216 L 2010.919921875 1216 L 2010.919921875 1260 L 1960 1260 L 1960 1216 Z Z" stroke-miterlimit="10"/></g><g transform="translate(-614,-206) scale(1,1)"><path fill="none" stroke="#000000" d="M 1960 1241 L 2010.919921875 1241" stroke-miterlimit="10"/></g><g transform="translate(-614,-206) scale(1,1)"><path fill="none" stroke="#000000" d="M 1960 1251 L 2010.919921875 1251" stroke-miterlimit="10"/></g><g transform="translate(-614,-206) scale(1,1)"><g><path fill="none" stroke="none"/><text fill="#000000" stroke="none" font-family="Arial" font-size="13px" font-style="normal" font-weight="bold" text-decoration="none" x="1971.371337890625" y="1235.5">Main</text></g></g><g transform="translate(-614,-206) scale(1,1)"><rect fill="#C0C0C0" stroke="none" x="1967" y="1151" width="50.919921875" height="44" opacity="0.2"/></g><g transform="translate(-614,-206) scale(1,1)"><rect fill="#ffffff" stroke="none" x="1960" y="1144" width="50.919921875" height="44"/></g><g transform="translate(-614,-206) scale(1,1)"><path fill="none" stroke="#000000" d="M 1960 1144 L 2010.919921875 1144 L 2010.919921875 1188 L 1960 1188 L 1960 1144 Z Z" stroke-miterlimit="10"/></g><g transform="translate(-614,-206) scale(1,1)"><path fill="none" stroke="#000000" d="M 1960 1169 L 2010.919921875 1169" stroke-miterlimit="10"/></g><g transform="translate(-614,-206) scale(1,1)"><path fill="none" stroke="#000000" d="M 1960 1179 L 2010.919921875 1179" stroke-miterlimit="10"/></g><g transform="translate(-614,-206) scale(1,1)"><g><path fill="none" stroke="none"/><text fill="#000000" stroke="none" font-family="Arial" font-size="13px" font-style="normal" font-weight="bold" text-decoration="none" x="1972.094970703125" y="1163.5">Serv</text></g></g><g transform="translate(-614,-206) scale(1,1)"><path fill="none" stroke="#000000" d="M 1985 1189 L 1985 1215" stroke-miterlimit="10" stroke-dasharray="3"/></g><g transform="translate(-614,-206) scale(1,1)"><path fill="none" stroke="#000000" d="M 1980.7904822439841 1204.837325142376 L 1985 1215 L 1989.2095177560159 1204.837325142376" stroke-miterlimit="10"/></g><g transform="translate(-614,-206) scale(1,1)"><rect fill="#C0C0C0" stroke="none" x="759" y="1151" width="94.9853515625" height="44" opacity="0.2"/></g><g transform="translate(-614,-206) scale(1,1)"><rect fill="#ffffff" stroke="none" x="752" y="1144" width="94.9853515625" height="44"/></g><g transform="translate(-614,-206) scale(1,1)"><path fill="none" stroke="#000000" d="M 752 1144 L 846.9853515625 1144 L 846.9853515625 1188 L 752 1188 L 752 1144 Z Z" stroke-miterlimit="10"/></g><g transform="translate(-614,-206) scale(1,1)"><path fill="none" stroke="#000000" d="M 752 1169 L 846.9853515625 1169" stroke-miterlimit="10"/></g><g transform="translate(-614,-206) scale(1,1)"><path fill="none" stroke="#000000" d="M 752 1179 L 846.9853515625 1179" stroke-miterlimit="10"/></g><g transform="translate(-614,-206) scale(1,1)"><g><path fill="none" stroke="none"/><text fill="#000000" stroke="none" font-family="Arial" font-size="13px" font-style="normal" font-weight="bold" text-decoration="none" x="759.38818359375" y="1163.5">InternalPlayer</text></g></g><g transform="translate(-614,-206) scale(1,1)"><path fill="none" stroke="#000000" d="M 848 1166 L 1959 1166" stroke-miterlimit="10" stroke-dasharray="3"/></g><g transform="translate(-614,-206) scale(1,1)"><path fill="none" stroke="#000000" d="M 1948.837325142376 1170.2095177560159 L 1959 1166 L 1948.837325142376 1161.7904822439841" stroke-miterlimit="10"/></g><g transform="translate(-614,-206) scale(1,1)"><path fill="none" stroke="#000000" d="M 1573 573 L 1969 1143" stroke-miterlimit="10" stroke-dasharray="3"/></g><g transform="translate(-614,-206) scale(1,1)"><path fill="none" stroke="#000000" d="M 1959.744508747854 1137.0556008140898 L 1969 1143 L 1966.6587043468317 1132.2520543979579" stroke-miterlimit="10"/></g><g transform="translate(-614,-206) scale(1,1)"><path fill="none" stroke="#000000" d="M 1702 573 L 1974 1143" stroke-miterlimit="10" stroke-dasharray="3"/></g><g transform="translate(-614,-206) scale(1,1)"><path fill="none" stroke="#000000" d="M 1965.8241032740245 1135.6410114332073 L 1974 1143 L 1973.4223587010354 1132.0151772645286" stroke-miterlimit="10"/></g><g transform="translate(-614,-206) scale(1,1)"><path fill="none" stroke="#000000" d="M 1830 573 L 1832 678 L 1978 1143" stroke-miterlimit="10" stroke-dasharray="3"/></g><g transform="translate(-614,-206) scale(1,1)"><path fill="none" stroke="#000000" d="M 1970.939464659584 1134.5650227797144 L 1978 1143 L 1978.9718771736027 1132.0430179903665" stroke-miterlimit="10"/></g><g transform="translate(-614,-206) scale(1,1)"><path fill="none" stroke="#000000" d="M 2003 573 L 1984 616 L 1985 1143" stroke-miterlimit="10" stroke-dasharray="3"/></g><g transform="translate(-614,-206) scale(1,1)"><path fill="none" stroke="#000000" d="M 1980.771205844131 1132.8453311237004 L 1985 1143 L 1989.1902261992784 1132.8293557530076" stroke-miterlimit="10"/></g><g transform="translate(-614,-206) scale(1,1)"><path fill="none" stroke="#000000" d="M 2141 573 L 1991 1143" stroke-miterlimit="10" stroke-dasharray="3"/></g><g transform="translate(-614,-206) scale(1,1)"><path fill="none" stroke="#000000" d="M 1989.515415218025 1132.1006418526076 L 1991 1143 L 1997.657250090021 1134.2432299768172" stroke-miterlimit="10"/></g><g transform="translate(-614,-206) scale(1,1)"><path fill="none" stroke="#000000" d="M 2277 573 L 1996 1143" stroke-miterlimit="10" stroke-dasharray="3"/></g><g transform="translate(-614,-206) scale(1,1)"><path fill="none" stroke="#000000" d="M 1996.7179954215328 1132.0234576220626 L 1996 1143 L 2004.2692869808477 1135.7461118820056" stroke-miterlimit="10"/></g><g transform="translate(-614,-206) scale(1,1)"><path fill="none" stroke="#000000" d="M 2434 573 L 2328 752 L 2004 1143" stroke-miterlimit="10" stroke-dasharray="3"/></g><g transform="translate(-614,-206) scale(1,1)"><path fill="none" stroke="#000000" d="M 2007.2430040826396 1132.4889142083236 L 2004 1143 L 2013.7256102191782 1137.8606901373223" stroke-miterlimit="10"/></g><g transform="translate(-614,-206) scale(1,1)"><path fill="none" stroke="#000000" d="M 2564 573 L 2424 744 L 2009 1143" stroke-miterlimit="10" stroke-dasharray="3"/></g><g transform="translate(-614,-206) scale(1,1)"><path fill="none" stroke="#000000" d="M 2013.4084239576412 1132.9220141789297 L 2009 1143 L 2019.243438589574 1138.9910143600127" stroke-miterlimit="10"/></g><g transform="translate(-614,-206) scale(1,1)"><path fill="none" stroke="#000000" d="M 2669 573 L 2464 760 L 2012 1143" stroke-miterlimit="10" stroke-dasharray="3"/></g><g transform="translate(-614,-206) scale(1,1)"><path fill="none" stroke="#000000" d="M 2017.0321558500655 1133.2185171113654 L 2012 1143 L 2022.4748244061825 1139.6417186449553" stroke-miterlimit="10"/></g><g transform="translate(-614,-206) scale(1,1)"><path fill="none" stroke="#000000" d="M 847 455 L 800 464 L 799 1143" stroke-miterlimit="10" stroke-dasharray="3"/></g><g transform="translate(-614,-206) scale(1,1)"><path fill="none" stroke="#000000" d="M 794.8054539135323 1132.831136586201 L 799 1143 L 803.2244802951162 1132.843535741402" stroke-miterlimit="10"/></g><g transform="translate(-614,-206) scale(1,1)"><rect fill="#C0C0C0" stroke="none" x="735" y="1247" width="136.15625" height="44" opacity="0.2"/></g><g transform="translate(-614,-206) scale(1,1)"><rect fill="#ffffff" stroke="none" x="728" y="1240" width="136.15625" height="44"/></g><g transform="translate(-614,-206) scale(1,1)"><path fill="none" stroke="#000000" d="M 728 1240 L 864.15625 1240 L 864.15625 1284 L 728 1284 L 728 1240 Z Z" stroke-miterlimit="10"/></g><g transform="translate(-614,-206) scale(1,1)"><path fill="none" stroke="#000000" d="M 728 1265 L 864.15625 1265" stroke-miterlimit="10"/></g><g transform="translate(-614,-206) scale(1,1)"><path fill="none" stroke="#000000" d="M 728 1275 L 864.15625 1275" stroke-miterlimit="10"/></g><g transform="translate(-614,-206) scale(1,1)"><g><path fill="none" stroke="none"/><text fill="#000000" stroke="none" font-family="Arial" font-size="13px" font-style="normal" font-weight="bold" text-decoration="none" x="736.464111328125" y="1259.5">InternalPlayerMoney</text></g></g><g transform="translate(-614,-206) scale(1,1)"><path fill="none" stroke="#000000" d="M 797 1239 L 798 1189" stroke-miterlimit="10" stroke-dasharray="3"/></g><g transform="translate(-614,-206) scale(1,1)"><path fill="none" stroke="#000000" d="M 802.0054632463075 1199.2448164543089 L 798 1189 L 793.5881110364041 1199.0764694101108" stroke-miterlimit="10"/></g><g transform="translate(-614,-206) scale(1,1)"><path fill="none" stroke="#000000" d="M 1239 953 L 1096 968 L 834 1143" stroke-miterlimit="10" stroke-dasharray="3"/></g><g transform="translate(-614,-206) scale(1,1)"><path fill="none" stroke="#000000" d="M 840.1127883422624 1133.8548472575521 L 834 1143 L 844.7889936079434 1140.8557945696002" stroke-miterlimit="10"/></g><g transform="translate(-614,-206) scale(1,1)"><rect fill="#C0C0C0" stroke="none" x="1743" y="1295" width="50.919921875" height="44" opacity="0.2"/></g><g transform="translate(-614,-206) scale(1,1)"><rect fill="#ffffff" stroke="none" x="1736" y="1288" width="50.919921875" height="44"/></g><g transform="translate(-614,-206) scale(1,1)"><path fill="none" stroke="#000000" d="M 1736 1288 L 1786.919921875 1288 L 1786.919921875 1332 L 1736 1332 L 1736 1288 Z Z" stroke-miterlimit="10"/></g><g transform="translate(-614,-206) scale(1,1)"><path fill="none" stroke="#000000" d="M 1736 1313 L 1786.919921875 1313" stroke-miterlimit="10"/></g><g transform="translate(-614,-206) scale(1,1)"><path fill="none" stroke="#000000" d="M 1736 1323 L 1786.919921875 1323" stroke-miterlimit="10"/></g><g transform="translate(-614,-206) scale(1,1)"><g><path fill="none" stroke="none"/><text fill="#000000" stroke="none" font-family="Arial" font-size="13px" font-style="normal" font-weight="bold" text-decoration="none" x="1744.47998046875" y="1307.5">Poker</text></g></g><g transform="translate(-614,-206) scale(1,1)"><path fill="none" stroke="#000000" d="M 1761 1287 L 1760 1240 L 1959 1175" stroke-miterlimit="10" stroke-dasharray="3"/></g><g transform="translate(-614,-206) scale(1,1)"><path fill="none" stroke="#000000" d="M 1950.646610830032 1182.1568770686006 L 1959 1175 L 1948.0325855646993 1174.1539381793514" stroke-miterlimit="10"/></g><g transform="translate(-614,-206) scale(1,1)"><rect fill="#C0C0C0" stroke="none" x="1431" y="1407" width="50.919921875" height="44" opacity="0.2"/></g><g transform="translate(-614,-206) scale(1,1)"><rect fill="#ffffff" stroke="none" x="1424" y="1400" width="50.919921875" height="44"/></g><g transform="translate(-614,-206) scale(1,1)"><path fill="none" stroke="#000000" d="M 1424 1400 L 1474.919921875 1400 L 1474.919921875 1444 L 1424 1444 L 1424 1400 Z Z" stroke-miterlimit="10"/></g><g transform="translate(-614,-206) scale(1,1)"><path fill="none" stroke="#000000" d="M 1424 1425 L 1474.919921875 1425" stroke-miterlimit="10"/></g><g transform="translate(-614,-206) scale(1,1)"><path fill="none" stroke="#000000" d="M 1424 1435 L 1474.919921875 1435" stroke-miterlimit="10"/></g><g transform="translate(-614,-206) scale(1,1)"><g><path fill="none" stroke="none"/><text fill="#000000" stroke="none" font-family="Arial" font-size="13px" font-style="normal" font-weight="bold" text-decoration="none" x="1433.9208984375" y="1419.5">Logic</text></g></g><g transform="translate(-614,-206) scale(1,1)"><rect fill="#C0C0C0" stroke="none" x="1311" y="1407" width="69.67724609375" height="44" opacity="0.2"/></g><g transform="translate(-614,-206) scale(1,1)"><rect fill="#ffffff" stroke="none" x="1304" y="1400" width="69.67724609375" height="44"/></g><g transform="translate(-614,-206) scale(1,1)"><path fill="none" stroke="#000000" d="M 1304 1400 L 1373.67724609375 1400 L 1373.67724609375 1444 L 1304 1444 L 1304 1400 Z Z" stroke-miterlimit="10"/></g><g transform="translate(-614,-206) scale(1,1)"><path fill="none" stroke="#000000" d="M 1304 1425 L 1373.67724609375 1425" stroke-miterlimit="10"/></g><g transform="translate(-614,-206) scale(1,1)"><path fill="none" stroke="#000000" d="M 1304 1435 L 1373.67724609375 1435" stroke-miterlimit="10"/></g><g transform="translate(-614,-206) scale(1,1)"><g><path fill="none" stroke="none"/><text fill="#000000" stroke="none" font-family="Arial" font-size="13px" font-style="normal" font-weight="bold" text-decoration="none" x="1310.293212890625" y="1419.5">BestHand</text></g></g><g transform="translate(-614,-206) scale(1,1)"><path fill="none" stroke="#000000" d="M 1375 1422 L 1423 1422" stroke-miterlimit="10" stroke-dasharray="3"/></g><g transform="translate(-614,-206) scale(1,1)"><path fill="none" stroke="#000000" d="M 1412.837325142376 1426.2095177560159 L 1423 1422 L 1412.837325142376 1417.7904822439841" stroke-miterlimit="10"/></g><g transform="translate(-614,-206) scale(1,1)"><path fill="none" stroke="#000000" d="M 1189.293623675731 1318.427009135622 A 11.5 11.5 0 0 1 1186.706376324269 1295.572990864378" stroke-miterlimit="10"/></g><g transform="translate(-614,-206) scale(1,1)"><g><path fill="none" stroke="none"/><text fill="#000000" stroke="none" font-family="Arial" font-size="13px" font-style="normal" font-weight="bold" text-decoration="none" x="1143.372314453125" y="1338.5">IHandEvaluator</text></g></g><g transform="translate(-614,-206) scale(1,1)"><path fill="none" stroke="#000000" d="M 1189 1345 L 1192 1424 L 1303 1422" stroke-miterlimit="10"/></g><g transform="translate(-614,-206) scale(1,1)"><rect fill="#C0C0C0" stroke="none" x="1207" y="1239" width="100.74267578125" height="44" opacity="0.2"/></g><g transform="translate(-614,-206) scale(1,1)"><rect fill="#ffffff" stroke="none" x="1200" y="1232" width="100.74267578125" height="44"/></g><g transform="translate(-614,-206) scale(1,1)"><path fill="none" stroke="#000000" d="M 1200 1232 L 1300.74267578125 1232 L 1300.74267578125 1276 L 1200 1276 L 1200 1232 Z Z" stroke-miterlimit="10"/></g><g transform="translate(-614,-206) scale(1,1)"><path fill="none" stroke="#000000" d="M 1200 1257 L 1300.74267578125 1257" stroke-miterlimit="10"/></g><g transform="translate(-614,-206) scale(1,1)"><path fill="none" stroke="#000000" d="M 1200 1267 L 1300.74267578125 1267" stroke-miterlimit="10"/></g><g transform="translate(-614,-206) scale(1,1)"><g><path fill="none" stroke="none"/><text fill="#000000" stroke="none" font-family="Arial" font-size="13px" font-style="normal" font-weight="bold" text-decoration="none" x="1207.372314453125" y="1251.5">HandEvaluator</text></g></g><g transform="translate(-614,-206) scale(1,1)"><path fill="none" stroke="#000000" d="M 1211 1295 L 1228 1277" stroke-miterlimit="10"/></g><g transform="translate(-614,-206) scale(1,1)"><path fill="none" stroke="#000000" d="M 1239 959 L 1072 1016 L 1072 1304 L 1176.67724609375 1308.281821196934" stroke-miterlimit="10"/></g><g transform="translate(-614,-206) scale(1,1)"><path fill="none" stroke="#000000" d="M 1280 973 L 1320 1032 L 1320 1256 L 1302 1255" stroke-miterlimit="10" stroke-dasharray="3"/></g><g transform="translate(-614,-206) scale(1,1)"><path fill="none" stroke="#000000" d="M 1312.3805299603828 1251.3606871882735 L 1302 1255 L 1311.9135258953277 1259.7667603592658" stroke-miterlimit="10"/></g><g transform="translate(-614,-206) scale(1,1)"><path fill="none" stroke="#000000" d="M 1287 973 L 1336 1024 L 1338 1399" stroke-miterlimit="10" stroke-dasharray="3"/></g><g transform="translate(-614,-206) scale(1,1)"><path fill="none" stroke="#000000" d="M 1333.736341949671 1388.859920117185 L 1338 1399 L 1342.1552577268635 1388.8150192330402" stroke-miterlimit="10"/></g><g transform="translate(-614,-206) scale(1,1)"><path fill="none" stroke="#000000" d="M 1569 1048 L 1584 1048 L 1584 1224 L 1367 1399" stroke-miterlimit="10" stroke-dasharray="3"/></g><g transform="translate(-614,-206) scale(1,1)"><path fill="none" stroke="#000000" d="M 1372.2682235354569 1389.3436124362959 L 1367 1399 L 1377.5532937147887 1395.8970994586675" stroke-miterlimit="10"/></g><g transform="translate(-614,-206) scale(1,1)"><path fill="none" stroke="#000000" d="M 1569 984 L 1608 984 L 1608 1224 L 1369 1399" stroke-miterlimit="10" stroke-dasharray="3"/></g><g transform="translate(-614,-206) scale(1,1)"><path fill="none" stroke="#000000" d="M 1374.7127015887409 1389.5997318890365 L 1369 1399 L 1379.6864833585278 1396.3924967060598" stroke-miterlimit="10"/></g><g transform="translate(-614,-206) scale(1,1)"><path fill="none" stroke="#000000" d="M 1471 977 L 1292 953" stroke-miterlimit="10" stroke-dasharray="3"/></g><g transform="translate(-614,-206) scale(1,1)"><path fill="none" stroke="#000000" d="M 1302.6319401291219 950.1783251266721 L 1292 953 L 1301.5131423997052 958.5226915252376" stroke-miterlimit="10"/></g><g transform="translate(-614,-206) scale(1,1)"><path fill="none" stroke="#000000" d="M 1471 1029 L 1292 960" stroke-miterlimit="10" stroke-dasharray="3"/></g><g transform="translate(-614,-206) scale(1,1)"><path fill="none" stroke="#000000" d="M 1302.996623793705 959.7274836890824 L 1292 960 L 1299.9684853861202 967.5830891232525" stroke-miterlimit="10"/></g><g transform="translate(-614,-206) scale(1,1)"><rect fill="#C0C0C0" stroke="none" x="1551" y="1407" width="160.68994140625" height="44" opacity="0.2"/></g><g transform="translate(-614,-206) scale(1,1)"><rect fill="#ffffff" stroke="none" x="1544" y="1400" width="160.68994140625" height="44"/></g><g transform="translate(-614,-206) scale(1,1)"><path fill="none" stroke="#000000" d="M 1544 1400 L 1704.68994140625 1400 L 1704.68994140625 1444 L 1544 1444 L 1544 1400 Z Z" stroke-miterlimit="10"/></g><g transform="translate(-614,-206) scale(1,1)"><path fill="none" stroke="#000000" d="M 1544 1425 L 1704.68994140625 1425" stroke-miterlimit="10"/></g><g transform="translate(-614,-206) scale(1,1)"><path fill="none" stroke="#000000" d="M 1544 1435 L 1704.68994140625 1435" stroke-miterlimit="10"/></g><g transform="translate(-614,-206) scale(1,1)"><g><path fill="none" stroke="none"/><text fill="#000000" stroke="none" font-family="Arial" font-size="13px" font-style="normal" font-weight="bold" text-decoration="none" x="1554.615966796875" y="1419.5">TwoPlayersBettingLogic</text></g></g><g transform="translate(-614,-206) scale(1,1)"><path fill="none" stroke="#000000" d="M 1476 1422 L 1543 1422" stroke-miterlimit="10" stroke-dasharray="3"/></g><g transform="translate(-614,-206) scale(1,1)"><path fill="none" stroke="#000000" d="M 1532.837325142376 1426.2095177560159 L 1543 1422 L 1532.837325142376 1417.7904822439841" stroke-miterlimit="10"/></g><g transform="translate(-614,-206) scale(1,1)"><path fill="none" stroke="#000000" d="M 1706 1423 L 1760 1424 L 1761 1333" stroke-miterlimit="10" stroke-dasharray="3"/></g><g transform="translate(-614,-206) scale(1,1)"><path fill="none" stroke="#000000" d="M 1765.0975926085098 1343.2083169432913 L 1761 1333 L 1756.6790653849143 1343.1158056551199" stroke-miterlimit="10"/></g><g transform="translate(-614,-206) scale(1,1)"><path fill="none" stroke="#000000" d="M 822 1189 L 1112 1480 L 1624 1480 L 1624 1445" stroke-miterlimit="10" stroke-dasharray="3"/></g><g transform="translate(-614,-206) scale(1,1)"><path fill="none" stroke="#000000" d="M 1628.2095177560159 1455.162674857624 L 1624 1445 L 1619.7904822439841 1455.162674857624" stroke-miterlimit="10"/></g><g transform="translate(-614,-206) scale(1,1)"><g><path fill="none" stroke="none"/><text fill="#000000" stroke="none" font-family="Arial" font-size="28px" font-style="normal" font-weight="normal" text-decoration="none" x="1925" y="1465">Serveur</text></g></g><g transform="translate(-614,-206) scale(1,1)"><path fill="#C0C0C0" stroke="none" d="M 1894.7099609375 1306.5 C 1894.7099609375 1300.1487248 1899.8586857375 1295 1906.2099609375 1295 C 1912.5612361375 1295 1917.7099609375 1300.1487248 1917.7099609375 1306.5 C 1917.7099609375 1312.8512752 1912.5612361375 1318 1906.2099609375 1318 C 1899.8586857375 1318 1894.7099609375 1312.8512752 1894.7099609375 1306.5 Z" opacity="0.2"/></g><g transform="translate(-614,-206) scale(1,1)"><path fill="#ffffff" stroke="none" d="M 1887.7099609375 1299.5 C 1887.7099609375 1293.1487248 1892.8586857375 1288 1899.2099609375 1288 C 1905.5612361375 1288 1910.7099609375 1293.1487248 1910.7099609375 1299.5 C 1910.7099609375 1305.8512752 1905.5612361375 1311 1899.2099609375 1311 C 1892.8586857375 1311 1887.7099609375 1305.8512752 1887.7099609375 1299.5 Z"/></g><g transform="translate(-614,-206) scale(1,1)"><path fill="none" stroke="#000000" d="M 1887.7099609375 1299.5 C 1887.7099609375 1293.1487248 1892.8586857375 1288 1899.2099609375 1288 C 1905.5612361375 1288 1910.7099609375 1293.1487248 1910.7099609375 1299.5 C 1910.7099609375 1305.8512752 1905.5612361375 1311 1899.2099609375 1311 C 1892.8586857375 1311 1887.7099609375 1305.8512752 1887.7099609375 1299.5 Z" stroke-miterlimit="10"/></g><g transform="translate(-614,-206) scale(1,1)"><g><path fill="none" stroke="none"/><text fill="#000000" stroke="none" font-family="Arial" font-size="13px" font-style="normal" font-weight="bold" text-decoration="none" x="1880.424072265625" y="1330.5">IPoker</text></g></g><g transform="translate(-614,-206) scale(1,1)"><path fill="none" stroke="#000000" d="M 1863 1311 L 1788 1310" stroke-miterlimit="10"/></g><g transform="translate(-614,-206) scale(1,1)"><rect fill="#C0C0C0" stroke="none" x="1551" y="1335" width="148.419921875" height="44" opacity="0.2"/></g><g transform="translate(-614,-206) scale(1,1)"><rect fill="#ffffff" stroke="none" x="1544" y="1328" width="148.419921875" height="44"/></g><g transform="translate(-614,-206) scale(1,1)"><path fill="none" stroke="#000000" d="M 1544 1328 L 1692.419921875 1328 L 1692.419921875 1372 L 1544 1372 L 1544 1328 Z Z" stroke-miterlimit="10"/></g><g transform="translate(-614,-206) scale(1,1)"><path fill="none" stroke="#000000" d="M 1544 1353 L 1692.419921875 1353" stroke-miterlimit="10"/></g><g transform="translate(-614,-206) scale(1,1)"><path fill="none" stroke="#000000" d="M 1544 1363 L 1692.419921875 1363" stroke-miterlimit="10"/></g><g transform="translate(-614,-206) scale(1,1)"><g><path fill="none" stroke="none"/><text fill="#000000" stroke="none" font-family="Arial" font-size="13px" font-style="normal" font-weight="bold" text-decoration="none" x="1553.17822265625" y="1347.5">TwoPlayersHandLogic</text></g></g><g transform="translate(-614,-206) scale(1,1)"><path fill="none" stroke="#000000" d="M 1620 1373 L 1622 1399" stroke-miterlimit="10" stroke-dasharray="3"/></g><g transform="translate(-614,-206) scale(1,1)"><path fill="none" stroke="#000000" d="M 1617.023439858682 1389.1901147223912 L 1622 1399 L 1625.4176769795506 1388.544404174632" stroke-miterlimit="10"/></g><g transform="translate(-614,-206) scale(1,1)"><path fill="#C0C0C0" stroke="none" d="M 1611.38818359375 1274.5 C 1611.38818359375 1268.1487248 1616.53690839375 1263 1622.88818359375 1263 C 1629.23945879375 1263 1634.38818359375 1268.1487248 1634.38818359375 1274.5 C 1634.38818359375 1280.8512752 1629.23945879375 1286 1622.88818359375 1286 C 1616.53690839375 1286 1611.38818359375 1280.8512752 1611.38818359375 1274.5 Z" opacity="0.2"/></g><g transform="translate(-614,-206) scale(1,1)"><path fill="#ffffff" stroke="none" d="M 1604.38818359375 1267.5 C 1604.38818359375 1261.1487248 1609.53690839375 1256 1615.88818359375 1256 C 1622.23945879375 1256 1627.38818359375 1261.1487248 1627.38818359375 1267.5 C 1627.38818359375 1273.8512752 1622.23945879375 1279 1615.88818359375 1279 C 1609.53690839375 1279 1604.38818359375 1273.8512752 1604.38818359375 1267.5 Z"/></g><g transform="translate(-614,-206) scale(1,1)"><path fill="none" stroke="#000000" d="M 1604.38818359375 1267.5 C 1604.38818359375 1261.1487248 1609.53690839375 1256 1615.88818359375 1256 C 1622.23945879375 1256 1627.38818359375 1261.1487248 1627.38818359375 1267.5 C 1627.38818359375 1273.8512752 1622.23945879375 1279 1615.88818359375 1279 C 1609.53690839375 1279 1604.38818359375 1273.8512752 1604.38818359375 1267.5 Z" stroke-miterlimit="10"/></g><g transform="translate(-614,-206) scale(1,1)"><g><path fill="none" stroke="none"/><text fill="#000000" stroke="none" font-family="Arial" font-size="13px" font-style="normal" font-weight="bold" text-decoration="none" x="1583.004150390625" y="1298.5">IHandLogic</text></g></g><g transform="translate(-614,-206) scale(1,1)"><path fill="none" stroke="#000000" d="M 1616 1305 L 1617 1327" stroke-miterlimit="10"/></g></g></svg>